<svg xmlns="http://www.w3.org/2000/svg" width="329" height="36" viewBox="0 0 329 36">
  <defs>
    <linearGradient id="data-for-hope_color-horiz-s@2x-a" x1="16.777%" x2="1362.126%" y1="50.02%" y2="50.02%">
      <stop offset="0%" stop-color="#F94B38"/>
      <stop offset="100%" stop-color="#F91C76"/>
    </linearGradient>
    <linearGradient id="data-for-hope_color-horiz-s@2x-b" x1="-86.897%" x2="1091.022%" y1="49.973%" y2="49.973%">
      <stop offset="0%" stop-color="#F94B38"/>
      <stop offset="100%" stop-color="#F91C76"/>
    </linearGradient>
    <linearGradient id="data-for-hope_color-horiz-s@2x-c" x1="-212.573%" x2="1151.143%" y1="50.002%" y2="50.002%">
      <stop offset="0%" stop-color="#F94B38"/>
      <stop offset="100%" stop-color="#F91C76"/>
    </linearGradient>
    <linearGradient id="data-for-hope_color-horiz-s@2x-d" x1="-266.718%" x2="911.34%" y1="49.973%" y2="49.973%">
      <stop offset="0%" stop-color="#F94B38"/>
      <stop offset="100%" stop-color="#F91C76"/>
    </linearGradient>
    <linearGradient id="data-for-hope_color-horiz-s@2x-e" x1="-590.429%" x2="1031.295%" y1="49.967%" y2="49.967%">
      <stop offset="0%" stop-color="#F94B38"/>
      <stop offset="100%" stop-color="#F91C76"/>
    </linearGradient>
    <linearGradient id="data-for-hope_color-horiz-s@2x-f" x1="-564.305%" x2="724.146%" y1="50.004%" y2="50.004%">
      <stop offset="0%" stop-color="#F94B38"/>
      <stop offset="100%" stop-color="#F91C76"/>
    </linearGradient>
    <linearGradient id="data-for-hope_color-horiz-s@2x-g" x1="-757.575%" x2="653.345%" y1="49.972%" y2="49.972%">
      <stop offset="0%" stop-color="#F94B38"/>
      <stop offset="100%" stop-color="#F91C76"/>
    </linearGradient>
    <linearGradient id="data-for-hope_color-horiz-s@2x-h" x1="-923.08%" x2="470.329%" y1="49.995%" y2="49.995%">
      <stop offset="0%" stop-color="#F94B38"/>
      <stop offset="100%" stop-color="#F91C76"/>
    </linearGradient>
    <linearGradient id="data-for-hope_color-horiz-s@2x-i" x1="-972.095%" x2="314.928%" y1="50.02%" y2="50.02%">
      <stop offset="0%" stop-color="#F94B38"/>
      <stop offset="100%" stop-color="#F91C76"/>
    </linearGradient>
    <linearGradient id="data-for-hope_color-horiz-s@2x-j" x1="-1215.056%" x2="207.181%" y1="49.946%" y2="49.946%">
      <stop offset="0%" stop-color="#F94B38"/>
      <stop offset="100%" stop-color="#F91C76"/>
    </linearGradient>
    <linearGradient id="data-for-hope_color-horiz-s@2x-k" x1="-1500.729%" x2="98.08%" y1="49.969%" y2="49.969%">
      <stop offset="0%" stop-color="#F94B38"/>
      <stop offset="100%" stop-color="#F91C76"/>
    </linearGradient>
  </defs>
  <g fill="none">
    <path fill="url(#data-for-hope_color-horiz-s@2x-a)" d="M24.255,22.659 C24.2618014,24.2994762 23.9293422,25.9236405 23.2785,27.4295 C21.999673,30.4117352 19.6276756,32.791247 16.6495,34.0795 C15.0833866,34.7566137 13.3926362,35.0976254 11.6865,35.0805 L2.2365,35.0805 C1.65894281,35.1108579 1.09843277,34.8794546 0.7105,34.4505 C0.335464162,34.0118818 0.138188097,33.448771 0.1575,32.872 C0.141695223,32.28834 0.338185378,31.7187673 0.7105,31.269 C1.09164874,30.8284095 1.65468634,30.5882146 2.2365,30.618 L11.6865,30.618 C12.7632164,30.6261074 13.8294985,30.4066489 14.8155,29.974 C15.7656813,29.5662062 16.6284023,28.9791757 17.3565,28.245 C18.0703456,27.5221782 18.6247646,26.6577614 18.984,25.7075 C19.3545376,24.727989 19.5419818,23.6887416 19.537,22.6415 L19.537,20.104 C19.5212746,19.5070718 19.7471748,18.9290701 20.1635,18.501 C20.6136714,18.0518024 21.2328788,17.8140369 21.868,17.8465 C22.5170753,17.8111145 23.1514432,18.0483681 23.618,18.501 C24.0411685,18.9256299 24.2725354,19.5046795 24.2585,20.104 L24.255,22.659 Z M24.255,14.1435 C24.2714617,14.7360526 24.0392006,15.3084556 23.6145,15.722 C23.1399886,16.1590559 22.5085802,16.3851 21.8645,16.3485 C21.2344424,16.3823626 20.6181503,16.1558404 20.16,15.722 C19.7420483,15.3035557 19.5153628,14.7311433 19.5335,14.14 L19.5335,13.034 C19.5401947,11.9750986 19.3478576,10.9243681 18.9665,9.9365 C18.5993251,8.98239833 18.0366047,8.11566587 17.3145,7.392 C16.5840814,6.66239898 15.7218233,6.07805873 14.7735,5.67 C13.7981765,5.24793015 12.7457112,5.03338454 11.683,5.04 L2.275,5.04 C1.69882407,5.07062081 1.13911787,4.8421169 0.749,4.417 C0.375609611,3.98177797 0.179470575,3.4220946 0.1995,2.849 C0.179073359,2.25991953 0.374479927,1.68365685 0.749,1.2285 C1.13046677,0.78834556 1.69328097,0.548245925 2.275,0.5775 L11.6865,0.5775 C13.3879657,0.558969835 15.0746319,0.895111084 16.639,1.5645 C19.6188104,2.85035006 21.9915812,5.23063756 23.268,8.2145 C23.9285509,9.73981249 24.2646672,11.3858291 24.255,13.048 L24.255,14.1435 Z M6.3,26.9115 C6.31645278,27.507862 6.07847756,28.0830749 5.6455,28.4935 C5.17407795,28.9240618 4.55077297,29.1494589 3.913,29.12 C3.28319241,29.1522075 2.66753168,28.9259174 2.2085,28.4935 C1.79054827,28.0750557 1.56386284,27.5026433 1.582,26.9115 L1.582,8.813 C1.56691659,8.21514719 1.79265442,7.6362999 2.2085,7.2065 C2.65939945,6.75842592 3.27808983,6.52085898 3.913,6.552 C4.55577276,6.52363701 5.18203494,6.76022495 5.6455,7.2065 C6.07469083,7.62962093 6.31131082,8.21041544 6.3,8.813 L6.3,26.9115 Z"/>
    <path fill="url(#data-for-hope_color-horiz-s@2x-b)" d="M50.6695,16.6565 C50.6849511,17.2516548 50.4470577,17.8253976 50.015,18.235 C49.122856,18.9845766 47.8473661,19.068192 46.865,18.4415 C46.5036648,18.1667943 46.2389346,17.7844062 46.109,17.3495 L42.8505,5.2185 C42.7721651,4.78609766 42.3939257,4.47286815 41.9545,4.4765 C41.559,4.4765 41.286,4.725 41.132,5.2185 L32.795,34.0445 C32.655568,34.5191635 32.368734,34.9371566 31.976,35.238 C31.5515315,35.5454879 31.0368609,35.7030904 30.513,35.686 C29.8690367,35.7217926 29.2379335,35.4958577 28.763,35.0595 C28.3360937,34.6474426 28.1034201,34.074023 28.1225,33.481 L28.1225,33.173 C28.1233943,33.0764719 28.1399426,32.9807283 28.1715,32.8895 L36.75,3.885 C36.9171701,3.3303055 37.1737054,2.80659514 37.5095,2.3345 C37.8397215,1.86788234 38.2371959,1.45271618 38.689,1.1025 C39.1371012,0.754054376 39.6397059,0.482056556 40.1765,0.2975 C40.7498982,0.102409219 41.352368,0.00653485278 41.958,0.014 C42.584137,0.00787811204 43.2071021,0.10362797 43.8025,0.2975 C44.3512588,0.474190194 44.8643601,0.746738245 45.318,1.1025 C45.7611698,1.45339511 46.1493055,1.86866493 46.4695,2.3345 C46.7959767,2.8067322 47.0397843,3.33103697 47.1905,3.885 L50.617,16.1 C50.6504481,16.1944727 50.6681832,16.2937896 50.6695,16.394 L50.6695,16.6565 Z M55.6500211,33.6 C55.6513242,33.883917 55.5903942,34.1646729 55.4715,34.4225 C55.3553232,34.6744039 55.1899085,34.9005104 54.985,35.0875 C54.7752527,35.2794678 54.5320586,35.4313159 54.2675,35.5355 C53.9477781,35.6554863 53.6078755,35.7125329 53.2665,35.7035 C52.7298481,35.7273735 52.2008317,35.5695317 51.765,35.2555 C51.3811856,34.9538443 51.1069865,34.5345534 50.9845,34.062 L48.4715,24.983 L40.6665,24.983 C40.09457,25.0085024 39.5407829,24.7790397 39.1545,24.3565 C38.773244,23.9208573 38.5718113,23.3565953 38.591,22.778 C38.5748677,22.1924819 38.7755379,21.6216312 39.1545,21.175 C39.5334366,20.7391976 40.0894089,20.4985337 40.6665,20.5205 L50.337,20.5205 C51.3892535,20.4365113 52.3374253,21.1544128 52.542,22.19 L55.5415,32.9 C55.5765,33.04 55.601,33.159 55.6185,33.25 C55.6393659,33.3655007 55.6500211,33.4826297 55.6500211,33.6 Z"/>
    <path fill="url(#data-for-hope_color-horiz-s@2x-c)" d="M54.747,2.849 C54.7274666,2.25705141 54.9296728,1.67914098 55.314,1.2285 C55.6926827,0.792730154 56.2491971,0.553119786 56.826,0.5775 L76.391,0.5775 C76.9802442,0.551439222 77.550271,0.79023424 77.945,1.2285 C78.3352286,1.67635954 78.5415422,2.255288 78.5225,2.849 C78.5409189,3.42682829 78.3338115,3.98915614 77.945,4.417 C77.5420634,4.84050289 76.9748966,5.06788055 76.391,5.04 L56.826,5.04 C56.2546269,5.06639105 55.7009295,4.83824721 55.314,4.417 C54.9312111,3.98620799 54.7282687,3.4249846 54.747,2.849 Z M66.6715,35.609 C66.0294172,35.6448578 65.39955,35.4231446 64.9215,34.993 C64.490899,34.5776402 64.257904,33.9983357 64.281,33.4005 L64.281,8.813 C64.2676349,8.21276821 64.4988292,7.63288742 64.9215,7.2065 C65.3882896,6.7542361 66.0224905,6.51704493 66.6715,6.552 C67.3073963,6.5211724 67.9270433,6.75861909 68.3795,7.2065 C68.7940027,7.63716011 69.0195127,8.21542322 69.006,8.813 L69.006,33.4005 C69.0279233,33.9953951 68.8008844,34.5725051 68.3795,34.993 C67.9159832,35.4193569 67.3004526,35.6413515 66.6715,35.609 Z"/>
    <path fill="url(#data-for-hope_color-horiz-s@2x-d)" d="M100.1665,16.6565 C100.181951,17.2516548 99.9440577,17.8253976 99.512,18.235 C98.619856,18.9845766 97.3443661,19.068192 96.362,18.4415 C96.0006648,18.1667943 95.7359346,17.7844062 95.606,17.3495 L92.3475,5.2185 C92.2691651,4.78609766 91.8909257,4.47286815 91.4515,4.4765 C91.056,4.4765 90.783,4.725 90.629,5.2185 L82.2955,34.0445 C82.156068,34.5191635 81.869234,34.9371566 81.4765,35.238 C81.0528562,35.551212 80.5366732,35.7138281 80.01,35.7 C79.3660367,35.7357926 78.7349335,35.5098577 78.26,35.0735 C77.8318068,34.6620542 77.5978291,34.0885544 77.616,33.495 L77.616,33.187 C77.6182634,33.0903043 77.6359876,32.994594 77.6685,32.9035 L86.24,3.885 C86.4074108,3.33104338 86.6626576,2.80755091 86.996,2.3345 C87.3284227,1.86857194 87.7269395,1.45354858 88.179,1.1025 C88.6271012,0.754054376 89.1297059,0.482056556 89.6665,0.2975 C90.2398982,0.102409219 90.842368,0.00653485278 91.448,0.014 C92.074137,0.00787811204 92.6971021,0.10362797 93.2925,0.2975 C93.8409434,0.474935531 94.3539191,0.747416821 94.808,1.1025 C95.2503243,1.45431188 95.6383338,1.86944667 95.9595,2.3345 C96.2863105,2.80607831 96.5290579,3.33064961 96.677,3.885 L100.1,16.1 C100.133448,16.1944727 100.151183,16.2937896 100.1525,16.394 L100.1665,16.6565 Z M105.14,33.6 C105.141324,33.883917 105.080394,34.1646729 104.9615,34.4225 C104.844051,34.6736531 104.678808,34.8995254 104.475,35.0875 C104.270481,35.2776804 104.033356,35.4294398 103.775,35.5355 C103.455278,35.6554863 103.115375,35.7125329 102.774,35.7035 C102.237348,35.7273735 101.708332,35.5695317 101.2725,35.2555 C100.888686,34.9538443 100.614487,34.5345534 100.492,34.062 L97.979,24.983 L90.1635,24.983 C89.5914839,25.0089928 89.037497,24.7794473 88.6515,24.3565 C88.270244,23.9208573 88.0688113,23.3565953 88.088,22.778 C88.0718677,22.1924819 88.2725379,21.6216312 88.6515,21.175 C89.0301286,20.7387769 89.586313,20.4980212 90.1635,20.5205 L99.834,20.5205 C100.886254,20.4365113 101.834425,21.1544128 102.039,22.19 L105.0385,32.9 C105.0735,33.04 105.098,33.159 105.1155,33.25 C105.134021,33.3657103 105.14222,33.4828379 105.14,33.6 L105.14,33.6 Z"/>
    <path fill="url(#data-for-hope_color-horiz-s@2x-e)" d="M142.2505,2.849 C142.268703,3.42871672 142.057398,3.99219649 141.6625,4.417 C141.262042,4.83557879 140.701355,5.06240201 140.1225,5.04 L126.994,5.04 L126.994,11.445 C127.014486,12.0461854 126.776181,12.6272928 126.3395,13.041 C125.85947,13.467797 125.231029,13.6890082 124.5895,13.657 C123.961561,13.6895946 123.347023,13.4675031 122.885,13.041 C122.460466,12.62402 122.232769,12.0465075 122.2585,11.452 L122.2585,2.8 C122.2585,1.33 123.0355,0.595 124.5895,0.595 L140.105,0.595 C140.689156,0.574616267 141.252589,0.812794793 141.645,1.246 C142.043645,1.68370329 142.260214,2.2570473 142.2505,2.849 Z M140.378,17.451 C140.396711,18.033937 140.185526,18.6008683 139.79,19.0295 C139.39184,19.4521958 138.830258,19.6819338 138.25,19.6595 L126.994,19.6595 L126.994,33.404 C127.017199,34.003573 126.782817,34.5844337 126.35,35 C125.86997,35.426797 125.241529,35.6480082 124.6,35.616 C123.972061,35.6485946 123.357523,35.4265031 122.8955,35 C122.470966,34.58302 122.243269,34.0055075 122.269,33.411 L122.269,17.451 C122.269,15.9506667 123.046,15.1993333 124.6,15.197 L138.25,15.197 C138.835074,15.1755539 139.399388,15.4153873 139.79,15.8515 C140.183311,16.2898684 140.393731,16.8622618 140.378,17.451 L140.378,17.451 Z"/>
    <path fill="url(#data-for-hope_color-horiz-s@2x-f)" d="M171.3845,12.502 C171.403973,13.1019804 171.165751,13.6816119 170.73,14.0945 C170.271577,14.5096758 169.667883,14.727257 169.05,14.7 C168.408352,14.7372009 167.778401,14.5167182 167.3,14.0875 C166.869399,13.6721402 166.636404,13.0928357 166.6595,12.495 C166.664652,11.4304397 166.455145,10.3757654 166.0435,9.394 C165.653295,8.44956038 165.088033,7.5874172 164.3775,6.853 C163.663393,6.12758176 162.81451,5.54858179 161.8785,5.1485 C160.910977,4.72939555 159.866879,4.51604673 158.8125,4.522 C157.759565,4.51640891 156.71647,4.72478982 155.7465,5.1345 C154.804116,5.53143444 153.94726,6.10663341 153.223,6.8285 C152.499104,7.55360603 151.927857,8.41642668 151.543,9.366 C151.13783,10.3590585 150.933231,11.4224946 150.941,12.495 L150.941,17.1885 C150.956451,17.7836548 150.718558,18.3573976 150.2865,18.767 C149.814875,19.1972259 149.191714,19.422571 148.554,19.3935 C147.924192,19.4257075 147.308532,19.1994174 146.8495,18.767 C146.430453,18.3504592 146.202418,17.7791053 146.2195,17.1885 L146.2195,12.502 C146.211674,10.8385796 146.552676,9.19199585 147.2205,7.6685 C148.516808,4.68977606 150.90546,2.32116498 153.895,1.05 C155.45242,0.391438594 157.128648,0.0602434869 158.8195,0.077 C160.510809,0.055277205 162.188046,0.386671534 163.744,1.05 C166.726027,2.33982835 169.104172,4.71797268 170.394,7.7 C171.055495,9.21405675 171.39289,10.8497671 171.3845,12.502 L171.3845,12.502 Z M171.384685,23.121 C171.393661,24.7817081 171.062521,26.4266888 170.4115,27.9545 C169.143612,30.9441141 166.768089,33.3271621 163.7825,34.6045 C162.21428,35.2733577 160.524306,35.6094458 158.8195,35.5915 C157.118312,35.6189353 155.429451,35.298552 153.8565,34.65 C150.868107,33.3928719 148.484115,31.0251919 147.2065,28.0455 C146.543905,26.5109873 146.207784,24.8554137 146.2195,23.184 C146.206295,22.5868487 146.433251,22.0093703 146.8495,21.581 C147.300998,21.1342058 147.919613,20.8979382 148.554,20.93 C149.196199,20.9011184 149.822233,21.1363554 150.2865,21.581 C150.71515,22.0030442 150.951759,22.5825462 150.941,23.184 C150.931919,24.2532238 151.136593,25.3134825 151.543,26.3025 C151.927313,27.2448655 152.493412,28.1023404 153.209,28.826 C153.928475,29.5523147 154.78187,30.1323379 155.722,30.534 C158.684657,31.8088322 162.126582,31.1254577 164.3775,28.8155 C165.082491,28.0819731 165.647144,27.2255041 166.0435,26.2885 C166.45452,25.3237279 166.664138,24.2851662 166.6595,23.2365 L166.6595,18.55 C166.645809,17.9480015 166.882874,17.367381 167.314,16.947 C167.775256,16.4994827 168.401023,16.2626032 169.043,16.2925 C169.659984,16.2527646 170.265105,16.4751328 170.709551,16.9049188 C171.153996,17.3347049 171.396527,17.932031 171.3775,18.55 L171.384685,23.121 Z"/>
    <path fill="url(#data-for-hope_color-horiz-s@2x-g)" d="M185.696,18.403 C185.681605,17.8056375 185.908736,17.2277151 186.326,16.8 C186.734779,16.3688599 187.307053,16.1310481 187.901,16.1455 L190.8515,16.1455 C191.575503,16.1447413 192.291161,15.9908748 192.9515,15.694 C193.60736,15.4083283 194.201648,14.9982698 194.7015,14.4865 C195.198482,13.9807269 195.583638,13.3761643 195.832,12.712 C196.090048,12.026282 196.220527,11.2991564 196.217,10.5665 C196.220877,9.83836622 196.090358,9.11576782 195.832,8.435 C195.579612,7.78008477 195.194748,7.18432001 194.7015,6.685 C194.203049,6.17421625 193.60824,5.76736679 192.9515,5.488 C192.288676,5.20043195 191.574016,5.05154446 190.8515,5.0505 L183.029,5.0505 L183.029,11.634 C183.045453,12.230362 182.807478,12.8055749 182.3745,13.216 C181.905739,13.6489848 181.282931,13.8759189 180.6455,13.846 C180.014376,13.8800051 179.396947,13.6535303 178.9375,13.2195 C178.5208,12.8016669 178.294252,12.2308668 178.311,11.641 L178.311,2.8 C178.311,1.33 179.046,0.595 180.516,0.595 L190.8515,0.595 C192.221257,0.578303199 193.5793,0.848957893 194.838,1.3895 C197.226366,2.42565106 199.130057,4.33309706 200.1615,6.7235 C201.220952,9.19664716 201.220952,11.9958528 200.1615,14.469 C199.647459,15.6577469 198.916301,16.7402407 198.0055,17.661 C197.102518,18.5774343 196.033539,19.3138419 194.8555,19.831 C193.5968,20.3715421 192.238757,20.6421968 190.869,20.6255 L187.9185,20.6255 C187.329357,20.6400535 186.760011,20.4124182 186.343296,19.9957038 C185.926582,19.5789894 185.698947,19.0096434 185.7135,18.4205 L185.696,18.403 Z M178.311,17.6575 C178.297646,17.0609888 178.523201,16.4838715 178.9375,16.0545 C179.389957,15.6066191 180.009604,15.3691724 180.6455,15.4 C181.28721,15.3717785 181.912336,15.6084152 182.3745,16.0545 C182.804912,16.4753613 183.041846,17.0556579 183.029,17.6575 L183.029,33.4075 C183.050662,34.0068522 182.812001,34.5862743 182.3745,34.9965 C181.9015,35.4210488 181.280386,35.6423362 180.6455,35.6125 C180.016547,35.6448515 179.401017,35.4228569 178.9375,34.9965 C178.516298,34.5773211 178.289205,34.0013408 178.311,33.4075 L178.311,17.6575 Z M191.8245,25.0075 C191.610548,24.6782858 191.489612,24.2973378 191.4745,23.905 C191.477443,23.6350542 191.534572,23.368449 191.6425,23.121 C191.751946,22.8559161 191.908469,22.6128311 192.1045,22.4035 C192.301544,22.1883271 192.539517,22.0146065 192.8045,21.8925 C193.559732,21.5963703 194.406273,21.6423363 195.125,22.0185 C195.488164,22.2286236 195.786146,22.5350848 195.986,22.904 L201.0365,32.291 C201.114566,32.4605859 201.178938,32.6361461 201.229,32.816 C201.272036,32.9876466 201.293204,33.1640446 201.292049,33.341 C201.289869,33.6231226 201.234042,33.9022595 201.1275,34.1635 C200.901447,34.7186427 200.468459,35.1641813 199.92,35.406 C199.587519,35.5435866 199.229666,35.6091929 198.87,35.5985 C198.017088,35.6283284 197.225174,35.1578303 196.8435,34.3945 L191.8245,25.0075 Z"/>
    <path fill="url(#data-for-hope_color-horiz-s@2x-h)" d="M219.0125,2.3205 C218.997326,1.7247047 219.223214,1.14799476 219.639,0.721 C220.090004,0.270873642 220.710684,0.0330313374 221.347,0.0665 C221.988843,0.0374437647 222.614288,0.274201316 223.076,0.721 C223.506583,1.14030352 223.743638,1.71963025 223.7305,2.3205 L223.7305,33.404 C223.752162,34.0033522 223.513501,34.5827743 223.076,34.993 C222.602608,35.4168901 221.981773,35.6380781 221.347,35.609 C220.717929,35.6421508 220.102098,35.4200477 219.639,34.993 C219.214466,34.57602 218.986769,33.9985075 219.0125,33.404 L219.0125,2.3205 Z M237.5625,2.3205 C237.548656,1.7242707 237.775775,1.14763973 238.1925,0.721 C238.642181,0.271046975 239.261738,0.0331474247 239.897,0.0665 C240.539906,0.0373046306 241.166486,0.274012661 241.6295,0.721 C242.057731,1.14161852 242.29329,1.72038516 242.2805,2.3205 L242.2805,33.404 C242.299868,34.002238 242.063036,34.5803129 241.6295,34.993 C241.153876,35.415475 240.532573,35.6363829 239.897,35.609 C239.269001,35.641996 238.654312,35.4198498 238.1925,34.993 C237.768916,34.5751461 237.540325,33.9985865 237.5625,33.404 L237.5625,19.6595 L227.3565,19.6595 C226.783837,19.6850996 226.229559,19.45415 225.8445,19.0295 C225.460739,18.5951168 225.257852,18.0302886 225.2775,17.451 C225.260866,16.8658513 225.463037,16.2955291 225.8445,15.8515 C226.221565,15.4131473 226.77883,15.1719236 227.3565,15.197 L237.5625,15.197 L237.5625,2.3205 Z"/>
    <path fill="url(#data-for-hope_color-horiz-s@2x-i)" d="M274.302,12.502 C274.321473,13.1019804 274.083251,13.6816119 273.6475,14.0945 C273.190178,14.5122147 272.586358,14.7323573 271.9675,14.707 C271.325852,14.7442009 270.695901,14.5237182 270.2175,14.0945 C269.786899,13.6791402 269.553904,13.0998357 269.577,12.502 C269.582152,11.4374397 269.372645,10.3827654 268.961,9.401 C268.570795,8.45656038 268.005533,7.5944172 267.295,6.86 C266.580893,6.13458176 265.73201,5.55558179 264.796,5.1555 C263.828384,4.73668859 262.784349,4.52335249 261.73,4.529 C260.677065,4.52340891 259.63397,4.73178982 258.664,5.1415 C257.721616,5.53843444 256.86476,6.11363341 256.1405,6.8355 C255.416604,7.56060603 254.845357,8.42342668 254.4605,9.373 C254.05533,10.3660585 253.850731,11.4294946 253.8585,12.502 L253.8585,17.1955 C253.873951,17.7906548 253.636058,18.3643976 253.204,18.774 C252.728025,19.2086315 252.097672,19.434298 251.454,19.4005 C250.824068,19.4335321 250.208093,19.2071266 249.7495,18.774 C249.330453,18.3574592 249.102418,17.7861053 249.1195,17.1955 L249.1195,12.502 C249.111674,10.8385796 249.452676,9.19199585 250.1205,7.6685 C251.408753,4.69032444 253.788265,2.31832697 256.7705,1.0395 C258.32792,0.380938594 260.004148,0.0497434869 261.695,0.0665 C263.387301,0.0491985253 265.064578,0.38536909 266.6195,1.0535 C269.601527,2.34332835 271.979672,4.72147268 273.2695,7.7035 C273.944955,9.21335649 274.296673,10.8479512 274.302,12.502 Z M274.302,23.121 C274.311161,24.7817081 273.980021,26.4266888 273.329,27.9545 C272.061112,30.9441141 269.685589,33.3271621 266.7,34.6045 C265.13178,35.2733577 263.441806,35.6094458 261.737,35.5915 C260.033601,35.6092572 258.344597,35.2781267 256.774,34.6185 C253.785607,33.3613719 251.401615,30.9936919 250.124,28.014 C249.461405,26.4794873 249.125284,24.8239137 249.137,23.1525 C249.123795,22.5553487 249.350751,21.9778703 249.767,21.5495 C250.218016,21.1019583 250.836974,20.8655596 251.4715,20.8985 C252.11967,20.8647434 252.752978,21.1003339 253.2215,21.5495 C253.65015,21.9715442 253.886759,22.5510462 253.876,23.1525 C253.866919,24.2217238 254.071593,25.2819825 254.478,26.271 C254.863602,27.2126849 255.429545,28.0699221 256.144,28.7945 C256.863475,29.5208147 257.71687,30.1008379 258.657,30.5025 C261.619657,31.7773322 265.061582,31.0939577 267.3125,28.784 C268.017491,28.0504731 268.582144,27.1940041 268.9785,26.257 C269.38952,25.2922279 269.599138,24.2536662 269.5945,23.205 L269.5945,18.55 C269.580809,17.9480015 269.817874,17.367381 270.249,16.947 C270.710712,16.5002013 271.336157,16.2634438 271.978,16.2925 C272.594984,16.2527646 273.200105,16.4751328 273.644551,16.9049188 C274.088996,17.3347049 274.331527,17.932031 274.3125,18.55 L274.302,23.121 Z"/>
    <path fill="url(#data-for-hope_color-horiz-s@2x-j)" d="M281.2285,2.8 C281.2285,1.33 282.006667,0.595 283.563,0.595 L293.4855,0.595 C294.909005,0.577955547 296.320409,0.858090598 297.6295,1.4175 C300.123873,2.48426226 302.115169,4.46554007 303.1945,6.9545 C303.751013,8.23286662 304.034723,9.61327058 304.0275,11.0075 C304.038679,12.3920055 303.758443,13.7633738 303.205,15.0325 C302.674958,16.2573318 301.918559,17.37115 300.9755,18.3155 C300.026391,19.2615097 298.903264,20.0150145 297.668,20.5345 C296.337695,21.0873012 294.908459,21.3624292 293.468,21.343 L290.668,21.343 C290.093469,21.3669487 289.538505,21.1318596 289.156,20.7025 C288.778684,20.2700795 288.577567,19.7117004 288.5925,19.138 C288.575702,18.5523779 288.776454,17.9812957 289.156,17.535 C289.534008,17.0979303 290.090621,16.8569892 290.668,16.8805 L293.468,16.8805 C294.252299,16.8846072 295.02906,16.7273487 295.75,16.4185 C296.455394,16.1185737 297.09961,15.6914691 297.6505,15.1585 C298.191245,14.6351454 298.6106,13.9995408 298.879,13.2965 C299.429411,11.8080886 299.429411,10.1719114 298.879,8.6835 C298.61307,7.97352657 298.197696,7.32898016 297.661,6.7935 C297.120775,6.25208859 296.481509,5.8195741 295.778,5.5195 C295.047774,5.20889748 294.261517,5.05164603 293.468,5.0575 L285.95,5.0575 L285.95,11.641 C285.966453,12.237362 285.728478,12.8125749 285.2955,13.223 C284.826739,13.6559848 284.203931,13.8829189 283.5665,13.853 C282.935313,13.8874214 282.317726,13.6608882 281.8585,13.2265 C281.4418,12.8086669 281.215252,12.2378668 281.232,11.648 L281.2285,2.8 Z M281.228464,17.6225 C281.226769,17.32275 281.287563,17.0259326 281.407,16.751 C281.519046,16.4891569 281.680681,16.251458 281.883,16.051 C282.083667,15.8524484 282.321545,15.6954491 282.583,15.589 C282.897478,15.4676418 283.233082,15.4105177 283.57,15.421 C284.207431,15.3910811 284.830239,15.6180152 285.299,16.051 C285.73014,16.4597787 285.967952,17.032053 285.9535,17.626 L285.9535,33.425 C285.975162,34.0243522 285.736501,34.6037743 285.299,35.014 C284.826,35.4385488 284.204886,35.6598362 283.57,35.63 C282.940929,35.6631508 282.325098,35.4410477 281.862,35.014 C281.440798,34.5948211 281.213705,34.0188408 281.2355,33.425 L281.228464,17.6225 Z"/>
    <path fill="url(#data-for-hope_color-horiz-s@2x-k)" d="M328.853,2.849 C328.869878,3.42914355 328.657343,3.9925481 328.2615,4.417 C327.862381,4.8354109 327.302812,5.06229774 326.725,5.04 L313.3095,5.04 L313.3095,11.445 C313.330889,12.045647 313.093892,12.6266716 312.6585,13.041 C312.17847,13.467797 311.550029,13.6890082 310.9085,13.657 C310.280501,13.689996 309.665812,13.4678498 309.204,13.041 C308.780416,12.6231461 308.551825,12.0465865 308.574,11.452 L308.574,2.8 C308.574,1.33 309.334667,0.595 310.856,0.595 L326.7075,0.595 C327.290627,0.574693599 327.852957,0.812947176 328.244,1.246 C328.64361,1.68335544 328.861406,2.25663391 328.853,2.849 L328.853,2.849 Z M328.5695,32.8895 C328.588211,33.472437 328.377026,34.0393683 327.9815,34.468 C327.582809,34.8899224 327.021595,35.1195102 326.4415,35.098 L310.8735,35.098 C309.3545,35.098 308.593833,34.3618333 308.5915,32.8895 L308.5915,17.451 C308.5915,15.9506667 309.369667,15.1993333 310.926,15.197 L323.029,15.197 C323.614074,15.1755539 324.178388,15.4153873 324.569,15.8515 C324.963269,16.2895208 325.174917,16.8618459 325.1605,17.451 C325.177886,18.0343626 324.965472,18.6012193 324.569,19.0295 C324.17084,19.4521958 323.609258,19.6819338 323.029,19.6595 L313.3095,19.6595 L313.3095,30.6355 L326.4415,30.6355 C327.025656,30.6151163 327.589089,30.8532948 327.9815,31.2865 C328.376937,31.7291625 328.587407,32.3067045 328.5695,32.9 L328.5695,32.8895 Z"/>
  </g>
</svg>
